<svg version="1.1" width="640" height="480" viewBox="0 0 640 480" xmlns="http://www.w3.org/2000/svg" xmlns:xlink="http://www.w3.org/1999/xlink"><g xmlns="http://www.w3.org/2000/svg" id="obj_1"><g id="obj_3" transform="matrix(0.9993908270190958,-0.03489949670250097,0.03489949670250097,0.9993908270190958,374.34639379470565,186.36127564417077)" opacity="1" display="inline"><path d="M 33.2752 0.469 L 156.272 0 C 156.195 19.3969 149.577 35.9019 136.371 49.4588 C 123.1731 63.0178 107.3361 69.8648 88.8571 69.9348 L 33.0402 70.1558 C 23.8112 70.1878 15.9692 66.9018 9.5603 60.2968 C 3.1423 53.7078 -0.0337 45.5568 0.0003 35.8869 C 0.0343 25.8969 3.2163 17.4909 9.5193 10.711 C 15.8372 3.916 23.7882 0.501 33.2752 0.469 Z " fill-opacity="1" fill="#fdbf08" stroke-opacity="1" stroke="#f7b809" stroke-width="1.6" stroke-linecap="square" stroke-linejoin="miter" filter="url(#obj_3_filter)"/><defs><filter id="obj_3_filter" x="-111%" y="-200%" width="322%" height="500%" filterUnits="objectBoundingBox"><feGaussianBlur in="SourceAlpha" stdDeviation="1"/><feComposite result="glowOuterdiff" operator="arithmetic" in2="SourceAlpha" k1="0" k2="1" k3="-1" k4="0"/><feFlood flood-color="#f7cba3" flood-opacity="1"/><feComposite operator="in" in2="glowOuterdiff"/><feComposite result="glowOuter" operator="over" in2="SourceGraphic"/></filter></defs></g><g id="obj_4" transform="matrix(1,0,0,1,70,-4.101)" opacity="1" display="inline"><path d="M 499.928 0 L 500 0 L 500 0.592 C 499.986 0.592 499.96 0.592 499.937 0.592 C 500.285 26.631 495.938 48.962 486.898 67.538 C 479.101 83.553 469.817 92.801 459.021 95.307 L 397.6569 96.5 C 397.5219 96.693 397.3969 96.893 397.2609 97.083 L 388.7589 97.249 C 361.0709 97.781 337.6648 109.321 318.4718 131.796 C 299.2088 154.328 289.8438 181.119 290.3338 212.204 L 291.6548 295.329 C 292.4598 347.165 276.4518 391.602 243.6497 428.767 C 210.8257 465.835 170.9157 484.886 123.8596 485.798 L 0.0145 488.202 C -0.3885 461.864 7.6085 439.319 24.0265 420.45 C 40.3915 401.59 60.4796 391.922 84.1446 391.46 L 103.5286 391.089 C 131.5556 390.542 155.0717 379.009 174.0677 356.5 C 193.1657 334.046 202.4267 307.252 201.9367 276.142 L 200.6327 193.024 C 199.8187 141.194 215.9077 96.729 248.8967 59.592 C 281.8788 22.446 321.8938 3.458 368.9429 2.54 L 428.8379 1.38 L 499.928 0 Z " fill-opacity="1" fill="#ffffff" stroke-opacity="1" stroke="#173051" stroke-width="2" stroke-linecap="square" stroke-linejoin="miter" fill-rule="nozero" filter="url(#obj_4_filter)"/><defs><filter id="obj_4_filter" x="-35%" y="-36%" width="170%" height="172%" filterUnits="objectBoundingBox"><feGaussianBlur in="SourceAlpha" stdDeviation="1"/><feOffset dx="-1.8369701987210297e-16" dy="1"/><feComposite result="shadowDropdiff" operator="arithmetic" in2="SourceAlpha" k1="0" k2="1" k3="-1" k4="0"/><feFlood flood-color="#000000" flood-opacity="1"/><feComposite operator="in" in2="shadowDropdiff"/><feComposite result="shadowDrop" operator="over" in2="SourceGraphic"/></filter></defs></g></g></svg>