<svg id="svg" version="1.1" width="2400" height="398" xmlns="http://www.w3.org/2000/svg" xmlns:xlink="http://www.w3.org/1999/xlink" style="display: block;"><g id="svgg"><path id="path0" d="M13.250 1.331 C 11.746 1.459,10.167 1.706,7.981 2.156 C 4.141 2.947,2.331 6.420,2.547 12.583 C 2.823 20.428,4.244 21.307,18.333 22.344 C 20.461 22.501,21.194 22.599,22.588 22.912 C 25.101 23.477,24.984 30.870,22.453 31.408 C 20.580 31.807,19.702 31.889,17.167 31.902 C 10.417 31.936,9.540 31.427,9.228 27.292 L 9.117 25.833 5.725 25.833 L 2.333 25.833 2.333 27.238 C 2.333 32.026,3.575 34.870,6.231 36.166 C 10.100 38.055,23.267 38.155,27.100 36.325 C 27.667 36.055,28.179 35.833,28.239 35.833 C 29.209 35.833,30.756 32.690,31.085 30.051 C 32.401 19.501,30.001 16.902,18.417 16.335 C 10.460 15.945,9.640 15.499,9.685 11.583 C 9.725 8.154,10.671 7.372,15.238 6.987 C 20.768 6.522,22.930 7.349,23.329 10.083 C 23.435 10.817,23.556 11.585,23.598 11.792 C 23.673 12.166,23.679 12.167,27.110 12.167 L 30.548 12.167 30.447 10.042 C 30.318 7.326,29.456 4.333,28.803 4.333 C 28.728 4.333,28.667 4.223,28.667 4.088 C 28.667 3.815,27.276 2.886,26.250 2.472 C 23.891 1.522,17.557 0.966,13.250 1.331 M79.491 1.334 C 78.616 1.413,77.228 1.598,76.408 1.746 C 75.588 1.894,74.533 2.081,74.063 2.162 C 70.211 2.826,67.926 5.784,67.343 10.861 C 67.245 11.716,67.078 13.167,66.972 14.083 C 66.729 16.188,66.728 24.123,66.971 26.000 C 67.072 26.779,67.236 28.048,67.336 28.820 C 67.495 30.047,68.128 32.106,68.715 33.307 C 69.156 34.208,70.616 35.477,71.887 36.064 C 77.343 38.585,92.148 38.015,95.204 35.168 C 95.401 34.984,95.622 34.833,95.694 34.833 C 95.766 34.833,95.950 34.590,96.102 34.292 C 96.255 33.994,96.433 33.712,96.498 33.667 C 96.686 33.534,97.040 32.804,97.183 32.254 C 97.254 31.977,97.506 31.113,97.742 30.335 C 98.809 26.815,99.020 13.321,98.068 9.500 C 96.678 3.920,95.072 2.589,88.500 1.564 C 86.573 1.264,81.665 1.138,79.491 1.334 M35.833 19.405 L 35.833 37.333 39.333 37.333 L 42.833 37.333 42.833 31.583 L 42.833 25.833 48.978 25.833 C 62.462 25.833,64.262 24.419,64.241 13.833 C 64.225 5.605,62.702 3.088,57.063 1.972 C 55.362 1.635,54.652 1.609,45.542 1.545 L 35.833 1.476 35.833 19.405 M100.241 1.714 C 100.195 1.832,100.179 3.238,100.204 4.839 L 100.250 7.750 105.375 7.794 L 110.500 7.838 110.500 22.586 L 110.500 37.333 114.000 37.333 L 117.500 37.333 117.500 22.583 L 117.500 7.833 122.833 7.833 L 128.167 7.833 128.167 4.667 L 128.167 1.500 114.245 1.500 C 103.058 1.500,100.307 1.542,100.241 1.714 M86.390 7.520 C 90.136 7.866,90.780 8.459,91.344 12.083 C 91.627 13.903,91.739 22.104,91.515 24.635 C 90.958 30.941,90.242 31.500,82.719 31.500 C 74.223 31.500,73.999 31.201,74.001 19.864 C 74.002 8.913,74.334 8.052,78.743 7.575 C 81.185 7.311,83.911 7.292,86.390 7.520 M53.277 7.655 C 56.630 7.933,57.546 9.530,57.290 14.648 C 57.048 19.492,56.414 19.833,47.655 19.833 L 42.833 19.833 42.833 13.667 L 42.833 7.500 47.208 7.507 C 49.615 7.511,52.345 7.578,53.277 7.655 M315.917 8.668 C 313.724 8.783,313.186 8.880,311.083 9.538 C 310.018 9.872,308.167 10.995,308.167 11.307 C 308.167 11.379,308.006 11.609,307.811 11.819 C 305.359 14.451,305.587 31.358,308.121 34.871 C 308.434 35.305,308.891 35.770,309.137 35.904 C 310.361 36.575,311.350 37.001,311.698 37.006 C 311.910 37.009,312.533 37.123,313.083 37.259 C 315.930 37.964,323.922 37.650,326.598 36.728 C 329.231 35.821,330.333 33.605,330.333 29.215 L 330.333 27.000 327.603 27.000 L 324.872 27.000 324.806 28.625 C 324.667 32.047,323.927 32.559,319.010 32.638 C 314.038 32.717,312.958 32.315,312.447 30.195 C 311.462 26.116,311.732 15.910,312.861 14.550 C 313.909 13.287,320.684 12.884,323.054 13.943 C 323.971 14.353,324.358 15.205,324.463 17.043 L 324.547 18.508 327.398 18.462 L 330.250 18.417 330.199 17.000 C 329.928 9.541,327.399 8.066,315.917 8.668 M341.667 8.658 C 338.222 8.885,335.636 9.787,334.445 11.178 C 333.681 12.071,332.856 14.558,332.651 16.583 C 331.682 26.173,332.449 33.199,334.691 35.262 C 338.094 38.395,351.633 38.523,355.258 35.457 C 358.417 32.785,358.968 16.091,356.043 11.667 C 355.616 11.021,354.243 9.833,353.923 9.833 C 353.810 9.833,353.491 9.720,353.214 9.582 C 351.531 8.743,346.503 8.340,341.667 8.658 M361.333 23.000 L 361.333 37.333 364.090 37.333 L 366.846 37.333 366.798 25.708 C 366.772 19.315,366.776 14.271,366.809 14.500 C 366.841 14.729,367.111 15.592,367.409 16.417 C 367.706 17.242,368.066 18.292,368.208 18.750 C 368.595 20.002,369.468 22.328,369.839 23.094 C 370.019 23.467,370.167 23.851,370.167 23.949 C 370.167 24.046,370.365 24.566,370.607 25.104 C 370.849 25.643,371.231 26.571,371.455 27.167 C 372.459 29.837,372.643 30.304,373.032 31.167 C 373.258 31.671,373.496 32.293,373.560 32.550 C 373.625 32.806,373.900 33.476,374.172 34.038 C 374.444 34.599,374.667 35.156,374.667 35.275 C 374.667 35.394,374.863 35.905,375.103 36.412 L 375.539 37.333 378.106 37.333 L 380.672 37.333 380.899 36.792 C 381.366 35.676,381.869 34.393,382.123 33.667 C 382.267 33.254,382.599 32.445,382.859 31.868 C 383.120 31.290,383.333 30.739,383.333 30.643 C 383.333 30.546,383.596 29.861,383.917 29.121 C 384.238 28.380,384.500 27.681,384.500 27.566 C 384.500 27.451,384.762 26.789,385.083 26.095 C 385.404 25.400,385.667 24.717,385.667 24.576 C 385.667 24.435,385.821 24.018,386.009 23.648 C 386.198 23.279,386.528 22.476,386.742 21.863 C 387.763 18.951,388.973 15.361,389.104 14.855 C 389.190 14.524,389.226 19.042,389.193 25.813 L 389.136 37.333 391.985 37.333 L 394.833 37.333 394.833 23.000 L 394.833 8.667 390.262 8.667 L 385.691 8.667 385.279 9.567 C 385.052 10.062,384.774 10.756,384.660 11.109 C 384.547 11.461,384.265 12.198,384.034 12.745 C 383.804 13.292,383.559 13.967,383.492 14.245 C 383.424 14.523,383.125 15.350,382.829 16.083 C 382.532 16.817,382.043 18.054,381.743 18.833 C 381.443 19.612,380.965 20.850,380.681 21.583 C 380.397 22.317,380.165 23.003,380.166 23.108 C 380.166 23.214,379.904 23.980,379.583 24.810 C 379.262 25.641,379.000 26.455,378.999 26.619 C 378.999 26.937,378.134 29.255,377.946 29.443 C 377.884 29.505,377.833 29.419,377.833 29.252 C 377.833 28.730,376.015 23.343,375.066 21.051 C 374.755 20.300,374.500 19.601,374.500 19.499 C 374.500 19.396,374.302 18.886,374.061 18.364 C 373.820 17.843,373.565 17.192,373.495 16.917 C 373.373 16.437,372.836 15.061,371.811 12.603 C 371.548 11.973,371.333 11.389,371.333 11.306 C 371.333 11.223,371.093 10.595,370.798 9.911 L 370.263 8.667 365.798 8.667 L 361.333 8.667 361.333 23.000 M348.134 13.506 C 349.412 13.714,350.654 14.117,351.024 14.444 C 352.222 15.504,352.581 25.939,351.564 30.150 C 351.049 32.286,350.072 32.667,345.106 32.667 C 338.239 32.667,338.090 32.468,338.104 23.333 C 338.117 14.451,338.292 14.041,342.333 13.441 C 343.261 13.303,347.151 13.347,348.134 13.506 M297.833 34.667 L 297.833 37.333 300.333 37.333 L 302.833 37.333 302.833 34.667 L 302.833 32.000 300.333 32.000 L 297.833 32.000 297.833 34.667 M224.750 47.995 C 221.620 48.357,220.879 49.120,220.711 52.149 C 220.571 54.695,221.126 56.175,222.318 56.434 C 222.555 56.485,222.975 56.600,223.250 56.689 C 223.525 56.779,224.875 56.960,226.250 57.094 C 230.162 57.472,230.495 57.801,229.730 60.532 C 229.567 61.111,225.959 61.363,224.385 60.906 C 223.975 60.787,223.667 60.066,223.667 59.225 L 223.667 58.667 222.060 58.667 L 220.454 58.667 220.563 59.728 C 220.898 63.003,222.155 63.836,226.750 63.829 C 231.827 63.821,233.166 62.778,233.164 58.833 C 233.163 55.435,232.092 54.633,227.250 54.403 C 224.157 54.256,223.833 54.086,223.833 52.616 C 223.833 51.023,224.391 50.646,226.807 50.607 C 228.966 50.573,229.667 51.022,229.667 52.442 C 229.667 52.826,229.698 52.833,231.274 52.833 L 232.882 52.833 232.786 51.696 C 232.518 48.498,230.084 47.377,224.750 47.995 M251.969 48.009 C 250.354 48.152,250.122 48.210,248.876 48.777 C 247.002 49.631,246.347 52.485,246.814 57.763 C 247.253 62.722,247.986 63.500,252.468 63.769 C 257.860 64.092,259.604 63.118,259.786 59.684 L 259.883 57.833 258.275 57.833 L 256.667 57.833 256.667 58.758 C 256.667 60.686,256.269 60.929,253.173 60.892 L 251.096 60.868 250.653 60.373 C 250.178 59.841,250.097 59.420,249.911 56.500 C 249.802 54.795,250.021 52.336,250.344 51.627 C 250.698 50.850,253.735 50.470,255.524 50.980 C 256.356 51.217,256.500 51.481,256.500 52.771 L 256.500 53.333 258.083 53.333 L 259.667 53.333 259.667 51.956 C 259.667 48.546,257.636 47.505,251.969 48.009 M265.828 47.992 C 263.652 48.216,262.195 48.856,261.699 49.809 C 260.310 52.474,260.504 60.549,262.001 62.365 C 263.559 64.255,271.580 64.274,273.409 62.391 C 275.146 60.603,275.069 51.009,273.305 49.298 C 272.162 48.191,269.099 47.656,265.828 47.992 M312.041 48.017 C 308.806 48.393,307.864 49.856,308.244 53.913 C 308.451 56.124,309.222 56.616,313.083 57.004 C 317.093 57.407,317.296 57.483,317.451 58.643 C 317.710 60.568,317.014 61.167,314.518 61.167 C 312.007 61.167,311.379 60.852,311.221 59.518 L 311.120 58.667 309.619 58.667 L 308.117 58.667 308.217 60.199 C 308.392 62.912,309.409 63.591,313.583 63.782 C 319.067 64.033,320.557 63.018,320.567 59.025 C 320.576 55.249,319.818 54.662,314.583 54.396 C 311.969 54.262,311.757 54.195,311.499 53.415 C 310.968 51.805,311.562 50.918,313.342 50.664 C 315.930 50.295,317.167 50.838,317.167 52.344 L 317.167 52.833 318.772 52.833 L 320.377 52.833 320.299 51.612 C 320.098 48.479,317.562 47.375,312.041 48.017 M151.613 48.125 C 151.572 48.194,151.483 48.512,151.414 48.833 C 151.346 49.154,151.086 49.979,150.837 50.667 C 150.589 51.354,150.098 52.817,149.747 53.917 C 149.396 55.017,148.859 56.612,148.554 57.462 C 148.249 58.312,148.000 59.112,148.000 59.240 C 148.000 59.368,147.844 59.835,147.654 60.278 C 147.344 61.001,146.951 62.261,146.714 63.292 C 146.629 63.661,146.652 63.667,148.286 63.667 L 149.944 63.667 150.350 62.292 L 150.756 60.917 154.008 60.872 L 157.260 60.827 157.654 62.038 C 157.871 62.705,158.073 63.344,158.103 63.458 C 158.141 63.607,158.614 63.667,159.745 63.667 C 161.654 63.667,161.635 63.710,160.771 61.311 C 159.895 58.881,159.483 57.668,159.166 56.583 C 158.864 55.550,158.340 54.011,157.407 51.417 C 157.111 50.592,156.732 49.485,156.566 48.958 L 156.264 48.000 153.975 48.000 C 152.716 48.000,151.653 48.056,151.613 48.125 M168.167 55.833 L 168.167 63.667 169.750 63.667 L 171.333 63.667 171.333 60.500 L 171.333 57.333 174.833 57.333 L 178.333 57.333 178.333 56.000 L 178.333 54.667 174.833 54.667 L 171.333 54.667 171.333 52.750 L 171.333 50.833 175.000 50.833 L 178.667 50.833 178.667 49.417 L 178.667 48.000 173.417 48.000 L 168.167 48.000 168.167 55.833 M179.833 55.833 L 179.833 63.667 185.250 63.667 L 190.667 63.667 190.667 62.250 L 190.667 60.833 186.833 60.833 L 183.000 60.833 183.000 58.833 L 183.000 56.833 186.583 56.833 L 190.167 56.833 190.167 55.667 L 190.167 54.500 186.583 54.500 L 183.000 54.500 183.000 52.667 L 183.000 50.833 186.833 50.833 L 190.667 50.833 190.667 49.417 L 190.667 48.000 185.250 48.000 L 179.833 48.000 179.833 55.833 M191.162 48.125 C 191.160 48.194,191.429 49.262,191.761 50.500 C 192.092 51.737,192.586 53.612,192.858 54.667 C 193.418 56.839,194.309 60.250,194.850 62.296 L 195.216 63.676 197.483 63.630 L 199.750 63.583 199.894 62.917 C 199.974 62.550,200.293 61.434,200.603 60.436 C 200.913 59.438,201.167 58.505,201.167 58.361 C 201.167 58.218,201.386 57.384,201.655 56.509 C 201.924 55.633,202.276 54.327,202.437 53.607 L 202.731 52.297 203.051 53.690 C 203.227 54.456,203.617 55.983,203.918 57.083 C 204.940 60.818,205.491 62.916,205.540 63.250 C 205.585 63.565,205.715 63.583,207.909 63.583 L 210.230 63.583 210.538 62.583 C 210.707 62.033,210.909 61.246,210.987 60.833 C 211.065 60.421,211.354 59.333,211.629 58.417 C 211.905 57.500,212.166 56.525,212.209 56.250 C 212.285 55.770,212.821 53.808,213.850 50.244 C 214.543 47.844,214.620 48.000,212.745 48.000 C 211.616 48.000,211.139 48.060,211.098 48.208 C 211.066 48.323,210.806 49.216,210.520 50.192 C 210.234 51.168,210.000 52.076,210.000 52.210 C 210.000 52.343,209.748 53.307,209.439 54.351 C 209.131 55.396,208.667 57.165,208.409 58.283 C 207.970 60.189,207.667 60.757,207.667 59.675 C 207.667 59.416,207.470 58.539,207.229 57.727 C 206.989 56.915,206.725 55.913,206.644 55.500 C 206.562 55.087,206.271 54.061,205.998 53.218 C 205.724 52.375,205.499 51.550,205.499 51.385 C 205.498 51.219,205.283 50.408,205.020 49.583 L 204.542 48.083 202.792 48.036 L 201.042 47.989 200.521 49.598 C 200.234 50.483,200.000 51.334,200.000 51.491 C 200.000 51.647,199.808 52.332,199.572 53.012 C 199.337 53.693,199.043 54.700,198.919 55.250 C 198.794 55.800,198.505 56.887,198.275 57.667 C 198.046 58.446,197.806 59.458,197.742 59.917 L 197.627 60.750 197.135 58.583 C 196.864 57.392,196.385 55.517,196.071 54.417 C 195.756 53.317,195.499 52.300,195.499 52.158 C 195.500 52.016,195.276 51.191,195.003 50.325 C 194.730 49.459,194.505 48.581,194.503 48.375 C 194.500 47.999,191.176 47.750,191.162 48.125 M234.500 55.833 L 234.500 63.667 239.917 63.667 L 245.333 63.667 245.333 62.250 L 245.333 60.833 241.500 60.833 L 237.667 60.833 237.667 58.833 L 237.667 56.833 241.333 56.833 L 245.000 56.833 245.000 55.667 L 245.000 54.500 241.333 54.500 L 237.667 54.500 237.667 52.667 L 237.667 50.833 241.500 50.833 L 245.333 50.833 245.333 49.417 L 245.333 48.000 239.917 48.000 L 234.500 48.000 234.500 55.833 M276.333 55.833 L 276.333 63.667 277.917 63.667 L 279.500 63.667 279.510 57.625 L 279.520 51.583 281.009 54.583 C 281.828 56.233,282.562 57.696,282.640 57.833 C 282.876 58.251,283.192 58.850,283.956 60.333 C 284.358 61.112,284.807 61.975,284.954 62.250 C 285.101 62.525,285.316 62.938,285.433 63.167 C 285.644 63.581,285.660 63.584,288.239 63.629 L 290.833 63.675 290.833 55.838 L 290.833 48.000 289.250 48.000 L 287.667 48.000 287.655 54.125 C 287.647 58.669,287.598 60.142,287.464 59.833 C 287.365 59.604,287.100 59.047,286.875 58.595 C 286.650 58.144,286.411 57.656,286.345 57.512 C 286.278 57.368,286.047 56.913,285.832 56.500 C 285.616 56.087,285.328 55.525,285.191 55.250 C 284.731 54.320,284.618 54.094,283.895 52.641 C 283.498 51.843,283.097 51.143,283.003 51.085 C 282.910 51.028,282.833 50.862,282.833 50.717 C 282.833 50.572,282.610 50.091,282.338 49.648 C 282.065 49.205,281.794 48.653,281.736 48.421 L 281.631 48.000 278.982 48.000 L 276.333 48.000 276.333 55.833 M293.278 48.111 C 293.217 48.172,293.167 51.702,293.167 55.956 L 293.167 63.689 298.042 63.636 C 306.022 63.549,306.551 63.097,306.790 56.173 C 306.981 50.615,305.923 48.682,302.410 48.174 C 301.124 47.988,293.454 47.935,293.278 48.111 M331.650 48.708 C 331.472 49.352,331.047 50.627,329.998 53.667 C 329.792 54.262,329.548 55.050,329.455 55.417 C 329.363 55.783,329.035 56.762,328.727 57.592 C 328.419 58.421,328.167 59.198,328.167 59.319 C 328.167 59.439,327.912 60.223,327.601 61.060 C 327.290 61.898,326.984 62.827,326.921 63.125 L 326.807 63.667 328.484 63.667 L 330.160 63.667 330.259 63.208 C 330.314 62.956,330.512 62.319,330.699 61.792 L 331.041 60.833 334.250 60.833 L 337.459 60.833 337.801 61.792 C 337.988 62.319,338.186 62.956,338.241 63.208 L 338.340 63.667 339.999 63.667 L 341.658 63.667 341.557 63.125 C 341.501 62.827,341.203 61.929,340.894 61.129 C 340.586 60.328,340.334 59.578,340.334 59.462 C 340.334 59.345,340.082 58.575,339.774 57.750 C 339.466 56.925,338.868 55.200,338.445 53.917 C 337.718 51.712,337.255 50.332,336.698 48.708 L 336.455 48.000 334.151 48.000 L 331.847 48.000 331.650 48.708 M341.497 48.458 C 341.493 48.895,341.902 50.521,343.036 54.583 C 343.318 55.592,343.605 56.757,343.675 57.173 C 343.745 57.589,343.948 58.376,344.127 58.923 C 344.305 59.469,344.544 60.329,344.657 60.833 C 344.770 61.337,344.981 62.183,345.126 62.713 L 345.389 63.676 347.651 63.630 L 349.914 63.583 350.140 62.667 C 350.264 62.163,350.583 61.031,350.850 60.151 C 351.116 59.272,351.333 58.449,351.333 58.322 C 351.333 58.195,351.589 57.264,351.901 56.254 C 352.214 55.243,352.516 54.079,352.573 53.667 C 352.759 52.318,352.925 52.419,353.322 54.120 C 353.531 55.017,353.919 56.468,354.184 57.345 C 354.450 58.223,354.667 59.048,354.667 59.178 C 354.667 59.309,354.948 60.372,355.292 61.541 L 355.917 63.666 358.105 63.666 L 360.293 63.667 360.471 63.208 C 360.750 62.492,361.333 60.408,361.333 60.130 C 361.333 59.992,361.552 59.175,361.820 58.315 C 362.088 57.454,362.357 56.487,362.418 56.167 C 362.479 55.846,362.747 54.863,363.014 53.982 C 363.281 53.101,363.501 52.238,363.503 52.065 C 363.505 51.892,363.730 51.041,364.003 50.175 C 364.728 47.878,364.787 48.000,362.936 48.000 L 361.373 48.000 360.945 49.375 C 360.710 50.131,360.429 51.125,360.321 51.583 C 360.212 52.042,359.918 53.167,359.667 54.083 C 359.061 56.298,358.713 57.663,358.380 59.133 L 358.105 60.348 357.551 58.383 C 357.246 57.301,356.894 55.967,356.769 55.417 C 356.644 54.867,356.378 53.854,356.177 53.167 C 355.977 52.479,355.566 51.054,355.263 50.000 L 354.714 48.083 352.956 48.036 L 351.198 47.989 350.766 49.287 C 350.528 50.000,350.333 50.707,350.333 50.857 C 350.333 51.006,350.071 51.939,349.750 52.928 C 349.429 53.918,349.167 54.828,349.167 54.949 C 349.167 55.071,348.913 56.013,348.604 57.044 C 348.294 58.074,347.985 59.292,347.916 59.750 L 347.791 60.583 347.486 59.520 C 347.318 58.935,347.133 58.110,347.074 57.686 C 346.973 56.949,346.506 55.163,345.327 51.000 C 345.028 49.946,344.750 48.840,344.707 48.542 L 344.630 48.000 343.065 48.000 L 341.500 48.000 341.497 48.458 M369.163 48.428 C 369.073 48.663,369.000 48.960,369.000 49.088 C 369.000 49.216,368.839 49.718,368.643 50.202 C 368.447 50.687,368.156 51.533,367.997 52.083 C 367.837 52.633,367.499 53.683,367.246 54.417 C 365.400 59.755,365.024 60.879,364.654 62.167 C 364.197 63.760,364.114 63.667,365.974 63.667 L 367.614 63.667 367.787 63.042 C 367.883 62.698,368.055 62.059,368.170 61.622 L 368.379 60.826 371.643 60.872 L 374.908 60.917 375.364 62.250 L 375.819 63.583 377.410 63.631 C 379.323 63.688,379.299 63.742,378.437 61.333 C 378.125 60.462,377.778 59.450,377.666 59.083 C 377.554 58.717,377.358 58.192,377.232 57.917 C 377.106 57.642,376.899 57.042,376.773 56.583 C 376.646 56.125,376.334 55.150,376.079 54.417 C 375.171 51.808,374.525 49.903,374.230 48.958 L 373.931 48.000 371.628 48.000 L 369.325 48.000 369.163 48.428 M378.909 48.446 C 378.971 48.691,379.279 49.280,379.594 49.755 C 379.909 50.229,380.167 50.668,380.167 50.729 C 380.167 50.790,380.370 51.157,380.617 51.545 C 380.865 51.933,381.192 52.475,381.344 52.750 C 381.496 53.025,381.869 53.700,382.173 54.250 C 382.477 54.800,382.900 55.482,383.113 55.766 C 383.326 56.049,383.500 56.351,383.500 56.435 C 383.500 56.520,383.688 56.865,383.917 57.202 C 384.322 57.799,384.333 57.895,384.333 60.741 L 384.333 63.667 385.917 63.667 L 387.500 63.667 387.500 60.770 C 387.500 57.960,387.677 56.823,388.163 56.500 C 388.232 56.454,388.538 55.967,388.844 55.417 C 389.150 54.867,389.445 54.379,389.501 54.333 C 389.557 54.288,389.881 53.762,390.222 53.167 C 390.562 52.571,390.933 51.938,391.045 51.760 C 391.829 50.521,392.333 49.668,392.333 49.580 C 392.333 49.524,392.521 49.232,392.750 48.931 C 393.440 48.027,393.369 47.984,391.294 48.036 L 389.421 48.083 388.807 49.167 C 388.469 49.762,387.994 50.625,387.750 51.083 C 387.506 51.542,387.209 52.029,387.090 52.167 C 386.970 52.304,386.816 52.602,386.747 52.829 C 386.610 53.276,385.969 54.329,385.833 54.330 C 385.787 54.330,385.622 54.049,385.466 53.707 C 385.310 53.364,384.908 52.596,384.573 52.000 C 384.238 51.404,383.785 50.589,383.567 50.187 C 383.349 49.786,382.964 49.130,382.710 48.729 L 382.250 48.001 380.524 48.000 L 378.797 48.000 378.909 48.446 M270.190 51.054 C 271.245 51.360,271.382 51.885,271.398 55.667 C 271.419 60.879,271.079 61.253,266.634 60.905 C 264.075 60.705,263.870 60.232,264.042 54.930 C 264.135 52.098,264.267 51.470,264.835 51.166 C 265.741 50.681,268.690 50.620,270.190 51.054 M301.992 51.055 C 303.418 51.430,304.052 54.374,303.511 58.110 C 303.149 60.613,302.792 60.833,299.092 60.833 L 296.333 60.833 296.333 55.833 L 296.333 50.833 298.792 50.847 C 300.144 50.854,301.584 50.948,301.992 51.055 M335.662 55.250 C 336.143 56.717,336.572 58.010,336.615 58.125 C 336.676 58.286,336.137 58.333,334.250 58.333 C 332.360 58.333,331.825 58.286,331.891 58.125 C 331.938 58.010,332.143 57.392,332.346 56.750 C 332.549 56.108,332.900 55.058,333.126 54.417 C 333.351 53.775,333.595 52.987,333.666 52.667 C 333.738 52.346,333.891 51.828,334.006 51.517 L 334.216 50.951 334.502 51.767 C 334.659 52.216,335.181 53.783,335.662 55.250 M154.397 52.125 C 154.562 52.652,154.940 53.796,155.238 54.667 C 155.536 55.538,155.937 56.719,156.129 57.292 L 156.477 58.333 154.072 58.333 C 152.749 58.333,151.667 58.303,151.667 58.266 C 151.667 58.229,152.108 56.856,152.646 55.215 C 153.185 53.574,153.679 51.992,153.743 51.699 C 153.910 50.939,154.056 51.034,154.397 52.125 M372.064 52.125 C 372.228 52.652,372.607 53.796,372.905 54.667 C 373.203 55.538,373.603 56.719,373.795 57.292 L 374.144 58.333 371.658 58.333 L 369.172 58.333 369.527 57.458 C 369.723 56.977,369.985 56.208,370.110 55.750 C 370.234 55.292,370.520 54.429,370.744 53.833 C 370.968 53.237,371.239 52.394,371.346 51.958 C 371.596 50.937,371.700 50.961,372.064 52.125 M393.982 61.042 C 393.963 61.433,393.967 63.325,393.988 63.542 C 393.995 63.610,394.600 63.667,395.333 63.667 L 396.667 63.667 396.667 62.167 L 396.667 60.667 395.333 60.667 C 394.067 60.667,393.999 60.686,393.982 61.042 " stroke="none" fill="#ffffff" fill-rule="evenodd"></path><path id="path1" d="M160.247 19.500 C 160.247 29.263,160.267 33.256,160.292 28.375 C 160.316 23.494,160.316 15.506,160.292 10.625 C 160.267 5.744,160.247 9.737,160.247 19.500 " stroke="none" fill="#ff7f00" fill-rule="evenodd"></path><path id="path2" d="M143.637 22.792 C 145.866 22.818,149.466 22.818,151.637 22.791 C 153.807 22.765,151.983 22.744,147.583 22.744 C 143.183 22.744,141.407 22.765,143.637 22.792 M30.885 55.750 C 30.886 56.300,30.917 56.505,30.954 56.205 C 30.991 55.906,30.990 55.456,30.952 55.205 C 30.914 54.955,30.884 55.200,30.885 55.750 " stroke="none" fill="#ffaa00" fill-rule="evenodd"></path><path id="path3" d="M274.372 1.353 C 265.981 1.920,263.572 4.262,263.592 11.833 C 263.614 20.269,265.151 21.300,279.250 22.333 C 284.387 22.709,285.038 23.048,285.332 25.500 C 285.626 27.960,285.211 30.105,284.270 30.984 C 283.421 31.776,278.741 32.214,275.080 31.844 C 270.939 31.425,270.577 31.092,270.350 27.500 L 270.250 25.917 266.833 25.917 L 263.417 25.917 263.410 26.417 C 263.285 35.486,265.991 37.589,277.750 37.565 C 284.567 37.551,288.238 36.862,289.971 35.273 C 292.791 32.688,293.288 22.694,290.757 19.472 C 289.322 17.644,284.932 16.436,279.417 16.350 C 274.786 16.277,271.785 15.602,271.172 14.493 C 270.067 12.498,270.708 8.399,272.234 7.704 C 274.140 6.836,280.113 6.638,282.533 7.363 C 283.748 7.727,284.343 8.814,284.596 11.128 L 284.710 12.173 288.147 12.128 L 291.583 12.083 291.527 10.260 C 291.296 2.805,286.871 0.508,274.372 1.353 M132.667 19.417 L 132.667 37.333 136.167 37.333 L 139.667 37.333 139.667 30.000 L 139.667 22.667 147.667 22.667 L 155.667 22.667 155.667 19.750 L 155.667 16.833 147.667 16.833 L 139.667 16.833 139.667 12.168 L 139.667 7.503 148.042 7.460 L 156.417 7.417 156.462 4.458 L 156.508 1.500 144.587 1.500 L 132.667 1.500 132.667 19.417 M160.333 19.417 L 160.333 37.333 163.833 37.333 L 167.333 37.333 167.333 19.417 L 167.333 1.500 163.833 1.500 L 160.333 1.500 160.333 19.417 M172.667 19.416 L 172.667 37.333 185.083 37.333 L 197.500 37.333 197.500 34.417 L 197.500 31.500 188.583 31.500 L 179.667 31.500 179.667 26.585 L 179.667 21.670 187.958 21.627 L 196.250 21.583 196.296 18.958 L 196.342 16.333 188.004 16.333 L 179.667 16.333 179.667 11.917 L 179.667 7.500 188.504 7.500 L 197.341 7.500 197.296 4.542 L 197.250 1.583 184.958 1.541 L 172.667 1.498 172.667 19.416 M202.273 1.629 C 202.227 1.704,202.189 9.768,202.189 19.549 L 202.189 37.333 214.011 37.333 L 225.833 37.333 225.833 34.167 L 225.833 31.000 217.501 31.000 L 209.168 31.000 209.126 16.292 L 209.083 1.583 205.720 1.538 C 203.871 1.513,202.319 1.554,202.273 1.629 M229.120 1.602 C 229.054 1.668,229.000 9.736,229.000 19.530 L 229.000 37.338 238.792 37.318 C 250.719 37.293,252.130 37.178,254.686 36.015 C 258.698 34.192,259.869 30.464,260.113 18.750 C 260.328 8.361,258.626 4.310,253.250 2.426 C 251.191 1.704,229.750 0.972,229.120 1.602 M248.030 7.654 C 252.159 8.187,253.032 10.210,253.030 19.239 C 253.028 30.688,252.247 31.500,241.235 31.500 L 236.000 31.500 236.000 19.500 L 236.000 7.500 241.458 7.505 C 244.460 7.508,247.418 7.576,248.030 7.654 M22.417 48.026 C 17.935 48.319,17.107 49.547,17.091 55.917 C 17.074 62.844,18.718 64.388,25.389 63.708 C 30.204 63.218,30.850 62.265,30.839 55.661 C 30.828 48.755,29.511 47.561,22.417 48.026 M72.750 47.943 C 69.118 48.233,68.106 49.242,68.094 52.583 C 68.081 56.181,68.763 56.682,74.315 57.160 C 77.182 57.407,77.238 57.442,77.298 59.017 C 77.366 60.798,77.194 60.981,75.322 61.112 C 72.065 61.340,71.220 61.005,71.041 59.414 L 70.957 58.667 69.478 58.667 L 68.000 58.667 68.000 59.553 C 68.000 63.038,70.557 64.326,76.201 63.684 C 79.741 63.282,80.554 62.375,80.554 58.833 C 80.554 55.415,79.542 54.685,74.417 54.408 C 71.733 54.263,71.568 54.205,71.330 53.322 C 70.878 51.643,71.412 50.877,73.195 50.649 C 75.712 50.327,76.846 50.762,77.079 52.140 L 77.196 52.833 78.703 52.833 L 80.211 52.833 80.132 51.625 C 79.974 49.206,78.999 48.334,76.083 48.005 C 74.625 47.841,74.138 47.832,72.750 47.943 M101.083 48.024 C 96.479 48.321,95.522 49.880,95.727 56.750 C 95.871 61.591,96.340 62.609,98.750 63.316 C 101.806 64.212,107.190 63.724,108.220 62.457 C 109.289 61.141,109.706 57.926,109.390 53.435 C 109.055 48.663,107.444 47.614,101.083 48.024 M2.410 48.177 C 2.350 48.275,2.412 48.481,2.548 48.636 C 2.683 48.790,2.962 49.254,3.167 49.667 C 3.371 50.079,3.633 50.529,3.748 50.667 C 3.863 50.804,4.201 51.367,4.500 51.917 C 4.799 52.467,5.137 53.029,5.252 53.167 C 5.368 53.304,5.659 53.792,5.899 54.250 C 6.140 54.708,6.406 55.196,6.491 55.333 C 6.576 55.471,6.912 56.035,7.239 56.587 L 7.833 57.590 7.833 60.628 L 7.833 63.667 9.417 63.667 L 11.000 63.667 11.007 60.708 L 11.015 57.750 11.836 56.417 C 12.288 55.683,12.782 54.858,12.935 54.583 C 13.087 54.308,13.452 53.708,13.746 53.250 C 14.774 51.646,16.667 48.362,16.667 48.182 C 16.667 48.062,16.071 48.000,14.919 48.000 L 13.171 48.000 12.745 48.675 C 12.511 49.046,12.248 49.515,12.160 49.716 C 12.073 49.918,11.703 50.571,11.338 51.167 C 10.973 51.762,10.433 52.757,10.139 53.378 C 9.846 53.998,9.552 54.448,9.488 54.378 C 9.423 54.307,9.053 53.650,8.664 52.917 C 8.275 52.183,7.798 51.307,7.604 50.969 C 7.409 50.631,6.953 49.824,6.590 49.177 L 5.930 48.000 4.225 48.000 C 3.200 48.000,2.476 48.071,2.410 48.177 M32.667 54.060 C 32.667 61.900,32.823 62.545,34.888 63.236 C 38.130 64.321,43.445 63.845,44.669 62.361 C 45.473 61.386,45.583 60.368,45.583 53.917 L 45.583 48.083 44.053 48.036 L 42.523 47.988 42.467 53.869 C 42.396 61.404,42.573 61.044,38.970 60.990 C 35.741 60.941,35.937 61.380,35.833 54.000 L 35.750 48.083 34.208 48.035 L 32.667 47.987 32.667 54.060 M48.125 48.097 C 48.056 48.166,48.000 51.697,48.000 55.944 L 48.000 63.667 49.583 63.667 L 51.167 63.667 51.167 61.083 L 51.167 58.500 53.475 58.500 C 57.159 58.500,57.500 58.783,57.500 61.843 L 57.500 63.667 59.099 63.667 L 60.698 63.667 60.641 61.292 C 60.574 58.535,60.373 57.986,59.227 57.434 L 58.549 57.108 59.223 56.762 C 60.495 56.110,60.888 54.931,60.739 52.219 C 60.613 49.920,60.130 49.156,58.333 48.411 C 57.543 48.083,48.418 47.802,48.125 48.097 M82.333 55.833 L 82.333 63.667 83.917 63.667 L 85.500 63.667 85.500 61.167 L 85.500 58.667 88.375 58.653 C 91.937 58.636,92.591 58.526,93.526 57.787 C 94.485 57.030,95.013 54.554,94.716 52.201 C 94.253 48.532,93.173 48.004,86.125 48.001 L 82.333 48.000 82.333 55.833 M111.333 55.840 L 111.333 63.679 112.875 63.631 L 114.417 63.583 114.447 62.667 C 114.463 62.163,114.482 61.019,114.488 60.125 L 114.500 58.500 116.708 58.520 C 120.436 58.553,120.528 58.627,120.636 61.667 L 120.708 63.667 122.295 63.667 L 123.882 63.667 123.792 61.148 C 123.692 58.310,123.593 58.047,122.395 57.413 L 121.734 57.063 122.471 56.740 C 123.736 56.185,124.242 54.224,123.835 51.446 C 123.395 48.431,122.342 48.003,115.375 48.001 L 111.333 48.000 111.333 55.840 M124.947 48.109 C 124.884 48.171,124.833 48.847,124.833 49.611 L 124.833 51.000 127.083 51.000 L 129.333 51.000 129.333 57.333 L 129.333 63.667 130.917 63.667 L 132.500 63.667 132.500 57.338 L 132.500 51.010 134.708 50.963 L 136.917 50.917 136.917 49.500 L 136.917 48.083 130.988 48.040 C 127.728 48.016,125.009 48.047,124.947 48.109 M25.586 50.855 C 27.567 51.150,27.665 51.384,27.665 55.833 C 27.665 60.743,27.569 60.888,24.269 60.974 C 20.423 61.074,20.262 60.881,20.258 56.167 C 20.255 52.823,20.463 51.454,21.018 51.157 C 21.801 50.738,23.876 50.601,25.586 50.855 M104.985 50.972 C 106.162 51.218,106.243 51.530,106.247 55.807 C 106.251 60.983,106.172 61.088,102.342 60.964 C 98.969 60.856,98.910 60.767,98.928 55.833 C 98.938 52.777,99.101 51.567,99.551 51.194 C 100.091 50.745,103.275 50.615,104.985 50.972 M57.181 51.310 C 57.630 51.864,57.649 54.615,57.208 55.152 C 56.830 55.614,55.498 55.831,53.042 55.832 L 51.167 55.833 51.167 53.317 L 51.167 50.800 54.015 50.858 C 56.773 50.915,56.873 50.929,57.181 51.310 M91.108 51.203 C 91.500 51.595,91.757 53.752,91.516 54.625 C 91.199 55.772,90.843 55.907,87.966 55.974 L 85.500 56.031 85.500 53.410 L 85.500 50.789 88.174 50.866 C 90.298 50.928,90.902 50.997,91.108 51.203 M120.193 51.067 C 120.556 51.229,120.677 51.761,120.685 53.220 C 120.696 55.529,120.494 55.669,116.958 55.793 L 114.500 55.879 114.500 53.339 L 114.500 50.799 117.208 50.871 C 118.698 50.910,120.041 50.998,120.193 51.067 M138.000 62.167 L 138.000 63.667 139.417 63.667 L 140.833 63.667 140.833 62.167 L 140.833 60.667 139.417 60.667 L 138.000 60.667 138.000 62.167 " stroke="none" fill="#fdbf09" fill-rule="evenodd"></path><path id="path4" d="" stroke="none" fill="#ffff00" fill-rule="evenodd"></path></g></svg>