<svg version="1.1" width="510" height="510" viewBox="0 0 510 510" xmlns="http://www.w3.org/2000/svg" xmlns:xlink="http://www.w3.org/1999/xlink"><g xmlns="http://www.w3.org/2000/svg" id="obj_1"><g id="obj_8" transform="matrix(1,0,0,1,5,5)" opacity="1" display="inline"><path d="M 250 0 C 388 0 500 112 500 250 C 500 388 388 500 250 500 C 112 500 0 388 0 250 C 0 112 112 0 250 0 Z " fill-opacity="1" fill="url(#obj_8_grad_pat_fill)" stroke-opacity="1" stroke="#173154" stroke-width="2.6" stroke-linecap="square" stroke-linejoin="miter" filter="url(#obj_8_filter)"/><defs><linearGradient x2="0" y2="1" x1="0" y1="0" id="obj_8_grad_pat_fill"><stop offset="0" stop-color="#1d3b64" stop-opacity="0.996078431372549"/><stop offset="0.99609375" stop-color="#214472" stop-opacity="0.996078431372549"/></linearGradient><filter id="obj_8_filter" x="-28%" y="-28%" width="156%" height="156%" filterUnits="objectBoundingBox"><feGaussianBlur in="SourceAlpha" stdDeviation="2"/><feOffset dx="-3.6739403974420594e-16" dy="2"/><feComposite result="shadowDropdiff" operator="arithmetic" in2="SourceAlpha" k1="0" k2="1" k3="-1" k4="0"/><feFlood flood-color="#152e4f" flood-opacity="1"/><feComposite operator="in" in2="shadowDropdiff"/><feComposite result="shadowDrop" operator="over" in2="SourceGraphic"/><feGaussianBlur in="SourceAlpha" stdDeviation="1"/><feComposite result="glowInnerdiff" operator="arithmetic" in2="SourceAlpha" k1="0" k2="-1" k3="1" k4="0"/><feFlood flood-color="#132b49" flood-opacity="1"/><feComposite operator="in" in2="glowInnerdiff"/><feComposite result="glowInner" operator="over" in2="shadowDrop"/></filter></defs></g><g id="obj_6" transform="matrix(1,0,0,1,130,132.95)" opacity="1" display="inline"><path d="M 249.964 0 L 250 0 L 250 0.296 C 249.993 0.296 249.98 0.296 249.969 0.296 C 250.143 13.316 247.97 24.48 243.45 33.769 C 239.551 41.777 234.909 46.4 229.511 47.651 L 198.829 48.25 C 198.761 48.347 198.699 48.447 198.631 48.541 L 194.38 48.623 C 180.537 48.89 168.831 54.66 159.2371 65.897 C 149.6051 77.163 144.9211 90.559 145.1671 106.101 L 145.8271 147.663 C 146.2301 173.583 138.2271 195.8 121.8251 214.383 C 105.4141 232.919 85.4591 242.443 61.9301 242.899 L 0.0071 244.1 C -0.1929 230.931 3.8051 219.659 12.0141 210.226 C 20.1971 200.796 30.2401 195.96 42.0731 195.73 L 51.7651 195.543 C 65.7791 195.27 77.5381 189.503 87.0351 178.249 C 96.5841 167.023 101.2141 153.626 100.9691 138.07 L 100.3181 96.511 C 99.9101 70.597 107.9551 48.363 124.4491 29.796 C 140.9401 11.221 160.9471 1.729 184.471 1.27 L 214.419 0.69 L 249.964 0 Z " fill-opacity="1" fill="#ffffff" stroke="none" stroke-width="3" stroke-linecap="square" stroke-linejoin="miter" fill-rule="nozero" filter="url(#obj_6_filter)"/><defs><filter id="obj_6_filter" x="-53%" y="-55%" width="206%" height="210%" filterUnits="objectBoundingBox"><feGaussianBlur in="SourceAlpha" stdDeviation="2"/><feComposite result="glowOuterdiff" operator="arithmetic" in2="SourceAlpha" k1="0" k2="1" k3="-1" k4="0"/><feFlood flood-color="#0e1f35" flood-opacity="1"/><feComposite operator="in" in2="glowOuterdiff"/><feComposite result="glowOuter" operator="over" in2="SourceGraphic"/></filter></defs></g><g id="obj_7" transform="matrix(0.9993908270190958,-0.03489949670250097,0.03489949670250097,0.9993908270190958,293.8033957361532,227.83800707110075)" opacity="1" display="inline"><path d="M 16.0241 0.261 L 75.249 0 C 75.211 10.83 72.024 20.0449 65.665 27.6149 C 59.31 35.1859 51.686 39.0099 42.7871 39.0469 L 15.9101 39.1709 C 11.4661 39.1899 7.6901 37.3549 4.6041 33.6659 C 1.5141 29.9869 -0.0159 25.4359 0.0001 20.0359 C 0.0181 14.4599 1.5491 9.765 4.5841 5.98 C 7.6281 2.186 11.4561 0.279 16.0241 0.261 Z " fill-opacity="1" fill="#fdbf08" stroke="none" stroke-width="1.6" stroke-linecap="square" stroke-linejoin="miter" filter="url(#obj_7_filter)"/><defs><filter id="obj_7_filter" x="-177%" y="-200%" width="454%" height="500%" filterUnits="objectBoundingBox"><feGaussianBlur in="SourceAlpha" stdDeviation="1"/><feOffset dx="-1.8369701987210297e-16" dy="1"/><feComposite result="shadowDropdiff" operator="arithmetic" in2="SourceAlpha" k1="0" k2="1" k3="-1" k4="0"/><feFlood flood-color="#122844" flood-opacity="1"/><feComposite operator="in" in2="shadowDropdiff"/><feComposite result="shadowDrop" operator="over" in2="SourceGraphic"/></filter></defs></g></g></svg>